HIERARCHY
ROOT Hips
{
	OFFSET 0.000000 0.000000 0.000000
	CHANNELS 6 Xposition Yposition Zposition Zrotation Yrotation Xrotation 
	JOINT LHipJoint
	{
		OFFSET 0.000000 0.000000 0.000000
		CHANNELS 3 Zrotation Yrotation Xrotation
		JOINT LeftUpLeg
		{
			OFFSET 1.363060 -1.794630 0.839290
			CHANNELS 3 Zrotation Yrotation Xrotation
			JOINT LeftLeg
			{
				OFFSET 2.448110 -6.726130 0.000000
				CHANNELS 3 Zrotation Yrotation Xrotation
				JOINT LeftFoot
				{
					OFFSET 2.562200 -7.039590 0.000000
					CHANNELS 3 Zrotation Yrotation Xrotation
					JOINT LeftToeBase
					{
						OFFSET 0.157640 -0.433110 2.322550
						CHANNELS 3 Zrotation Yrotation Xrotation
						End Site
						{
							OFFSET 0.000000 0.000000 0.000000
						}
					}
				}
			}
		}
	}
	JOINT RHipJoint
	{
		OFFSET 0.000000 0.000000 0.000000
		CHANNELS 3 Zrotation Yrotation Xrotation
		JOINT RightUpLeg
		{
			OFFSET -1.305520 -1.794630 0.839290
			CHANNELS 3 Zrotation Yrotation Xrotation
			JOINT RightLeg
			{
				OFFSET -2.542530 -6.985550 0.000000
				CHANNELS 3 Zrotation Yrotation Xrotation
				JOINT RightFoot
				{
					OFFSET -2.568260 -7.056230 0.000000
					CHANNELS 3 Zrotation Yrotation Xrotation
					JOINT RightToeBase
					{
						OFFSET -0.164730 -0.452590 2.363150
						CHANNELS 3 Zrotation Yrotation Xrotation
						End Site
						{
							OFFSET 0.000000 0.000000 0.000000
						}
					}
				}
			}
		}
	}
}
MOTION
Frames: 14
Frame Time: 0.008333
2.272577 16.421302 3.956499 -144.903358 -87.495160 153.904370 -9.520370 0.814593 3.135173 -9.494316 3.977139 -39.340992 -2.370598 0.052586 11.855558 0.334744 2.943451 9.792009 1.316899 -0.000000 -39.258099 10.247835 -2.930258 -0.864685 6.525870 -9.709844 -3.051880 2.202476 -1.509575 30.922203 0.024162 4.736216 -13.891050 -0.254799 0.000000 -80.289300
2.138751 16.430226 3.969811 169.270917 -88.405528 -160.230199 -10.312623 0.541117 3.194161 -10.487387 3.500012 -39.286482 -2.326198 0.134920 12.780623 0.358307 3.061551 9.673682 1.329600 0.000000 -38.405700 9.623239 -3.241068 -0.999236 5.156924 -10.492914 -4.550412 2.018157 -1.925750 33.991584 0.144941 5.124010 -12.272820 -0.259500 -0.000000 -83.208799
2.009445 16.440558 3.984126 122.471230 -89.977574 -113.369479 -9.777657 0.343481 3.038855 -10.970841 3.036457 -39.158643 -2.367728 0.040276 13.896017 0.260533 2.963114 9.335196 1.337300 -0.000000 -37.533500 10.510241 -3.721100 -0.917363 4.557915 -11.342947 -6.279857 1.889348 -2.445652 36.963005 0.243292 5.389138 -10.314695 -0.209601 -0.000000 -85.699800
1.884924 16.451866 3.999985 107.979907 -89.988050 -98.793088 -9.420187 0.555577 3.046765 -11.387015 2.844952 -39.185812 -2.412429 0.083011 14.763267 0.278176 3.048130 8.660261 1.331299 0.000000 -36.671800 11.056909 -3.641693 -0.912081 3.850278 -11.718987 -8.008113 1.517065 -2.706197 40.218426 0.320690 5.725392 -8.127805 -0.095100 -0.000000 -87.574900
1.765460 16.463775 4.016311 104.329070 -89.741108 -95.009946 -9.256929 0.688224 3.064842 -11.843138 2.658673 -39.188291 -2.450494 0.118354 15.512984 0.309792 3.179388 7.845733 1.322900 -0.000000 -35.864500 11.380832 -3.563827 -0.901263 3.134400 -11.931544 -9.858786 1.136092 -2.957238 43.512290 0.358335 5.988310 -5.853970 0.077900 0.000000 -88.740200
1.650898 16.476150 4.033148 104.957126 -89.440558 -95.463314 -9.167473 0.767486 3.075473 -12.283765 2.511926 -39.183853 -2.487495 0.139299 16.168979 0.344329 3.317607 6.956920 1.307100 0.000000 -35.138700 11.612581 -3.486072 -0.866887 2.495061 -11.972854 -11.799810 0.760913 -3.194474 46.768200 0.351294 6.117176 -3.605714 0.290700 0.000001 -89.220900
1.541315 16.488980 4.050862 107.824831 -89.145172 -98.126615 -9.129350 0.808302 3.071430 -12.677719 2.451645 -39.193230 -2.522535 0.151225 16.754305 0.376783 3.422863 6.044274 1.275300 -0.000001 -34.517100 11.773086 -3.400960 -0.807482 1.976407 -11.834684 -13.782814 0.400984 -3.410104 49.923888 0.300188 6.047684 -1.505349 0.507800 0.000000 -89.115101
1.436291 16.502367 4.068775 111.877551 -88.850738 -101.954928 -9.122698 0.828622 3.057464 -13.031886 2.463048 -39.203588 -2.556596 0.155803 17.246207 0.408100 3.512026 5.172471 1.237201 -0.000000 -34.020700 11.883652 -3.298213 -0.728657 1.550034 -11.554562 -15.779811 0.062550 -3.600453 52.943452 0.212125 5.746755 0.330478 0.686500 -0.000000 -88.564200
1.335390 16.516557 4.086877 116.570097 -88.562012 -106.414201 -9.142907 0.836478 3.033720 -13.338707 2.550965 -39.213020 -2.588455 0.156462 17.650105 0.436177 3.575674 4.379806 1.194200 0.000000 -33.657000 11.950225 -3.177668 -0.635902 1.214765 -11.162891 -17.754591 -0.249135 -3.764976 55.785380 0.093384 5.170491 1.814399 0.785700 -0.000000 -87.705700
1.238257 16.531901 4.105360 121.567939 -88.283999 -111.184874 -9.188860 0.836198 2.998304 -13.588871 2.720091 -39.213307 -2.616623 0.156273 17.975799 0.458668 3.602601 3.687127 1.146700 -0.000000 -33.422700 11.976172 -3.041976 -0.536953 0.969958 -10.694469 -19.666923 -0.531111 -3.904482 58.411276 -0.051126 4.289566 2.892791 0.777000 -0.000000 -86.646800
1.144596 16.548687 4.124192 126.546270 -88.018096 -115.957861 -9.253960 0.832778 2.951952 -13.779458 2.953893 -39.181932 -2.640194 0.155999 18.219654 0.475602 3.600468 3.107564 1.098800 -0.000000 -33.317800 11.970685 -2.891819 -0.441162 0.799586 -10.193343 -21.481249 -0.781972 -4.020385 60.788832 -0.217964 3.105823 3.544445 0.652300 0.000001 -85.456500
1.053386 16.567145 4.143123 131.180334 -87.765220 -120.402597 -9.325363 0.833400 2.906042 -13.919528 3.210939 -39.119856 -2.660061 0.154331 18.379538 0.489060 3.589944 2.640094 1.056900 0.000000 -33.281000 11.947575 -2.727711 -0.349168 0.682414 -9.699913 -23.199766 -1.001290 -4.114077 62.899213 -0.404907 1.653962 3.782247 0.427199 -0.000000 -84.145100
0.964358 16.587514 4.162423 135.402990 -87.538849 -124.463299 -9.402237 0.836557 2.858795 -14.002214 3.480951 -39.004882 -2.674917 0.150882 18.459812 0.499029 3.570700 2.269649 1.019900 -0.000000 -33.302800 11.908772 -2.554611 -0.268844 0.613089 -9.245493 -24.788147 -1.186622 -4.187512 64.710693 -0.610410 -0.012477 3.641809 0.133100 -0.000000 -82.706300
0.877247 16.609883 4.182080 139.152194 -87.348032 -128.083545 -9.480473 0.842083 2.813049 -14.029867 3.742484 -38.823974 -2.684633 0.144083 18.459944 0.506821 3.551397 1.977996 0.988400 -0.000000 -33.359700 11.858703 -2.376194 -0.203968 0.578213 -8.857186 -26.232099 -1.336037 -4.242513 66.202203 -0.830901 -1.810362 3.181087 -0.187300 0.000000 -81.115900
